<svg width="36" height="36" viewBox="0 0 36 36" fill="none" xmlns="http://www.w3.org/2000/svg">
<path d="M12 25C12 26.1 12.9 27 14 27H22C23.1 27 24 26.1 24 25V15C24 13.9 23.1 13 22 13H14C12.9 13 12 13.9 12 15V25ZM15 15H21C21.55 15 22 15.45 22 16V24C22 24.55 21.55 25 21 25H15C14.45 25 14 24.55 14 24V16C14 15.45 14.45 15 15 15ZM21.5 10L20.79 9.29C20.61 9.11 20.35 9 20.09 9H15.91C15.65 9 15.39 9.11 15.21 9.29L14.5 10H12C11.45 10 11 10.45 11 11C11 11.55 11.45 12 12 12H24C24.55 12 25 11.55 25 11C25 10.45 24.55 10 24 10H21.5Z" fill="#AFAFAF" stroke="white" stroke-width="0.5"/>
<rect x="0.25" y="0.25" width="35.5" height="35.5" rx="17.75" stroke="#AFAFAF" stroke-width="0.5"/>
</svg>
