<svg width="52" height="24" viewBox="0 0 52 24" fill="none" xmlns="http://www.w3.org/2000/svg">
<path d="M10.5025 20.7866C11.2364 20.7866 11.7521 20.5783 12.0496 20.1618C12.3471 19.7453 12.4959 19.2792 12.4959 18.7635V5.13702C12.4959 4.64115 12.3471 4.18495 12.0496 3.76842C11.7521 3.35189 11.2364 3.14363 10.5025 3.14363H3.5405L3.51074 22.542C3.51074 22.9783 3.34215 23.3254 3.00496 23.5833C2.66777 23.8412 2.25124 23.9701 1.75537 23.9701C0.585124 23.9701 0 23.494 0 22.542V1.9238C0 1.20975 0.183471 0.733713 0.550413 0.495697C0.917355 0.25768 1.35868 0.138672 1.87438 0.138672H11.2463C11.762 0.138672 12.2975 0.247763 12.8529 0.465945C13.4083 0.684126 13.9438 0.961812 14.4595 1.299H14.4298C14.9455 1.67586 15.3421 2.16677 15.6198 2.77173C15.8975 3.37669 16.0364 4.07586 16.0364 4.86925V19.0015C16.0364 20.6081 15.5008 21.8081 14.4298 22.6015C13.914 22.9783 13.3835 23.2709 12.838 23.4792C12.2926 23.6874 11.762 23.7916 11.2463 23.7916H6.24793C5.91074 23.7916 5.64793 23.6527 5.4595 23.375C5.27107 23.0973 5.17686 22.7304 5.17686 22.2742C5.17686 21.2825 5.60331 20.7866 6.4562 20.7866H10.5025Z" fill="#00B2DA"/>
<path d="M24.7828 21.3225C24.7828 21.9969 24.5547 22.5672 24.0985 23.0333C23.6423 23.4994 23.077 23.7325 22.4026 23.7325C21.7282 23.7325 21.163 23.4994 20.7068 23.0333C20.2506 22.5672 20.0225 21.9969 20.0225 21.3225C20.0225 20.6482 20.2506 20.1077 20.7068 19.6416C21.163 19.1754 21.7282 18.9424 22.4026 18.9424C23.077 18.9424 23.6423 19.1754 24.0985 19.6416C24.5547 20.1077 24.7828 20.668 24.7828 21.3225Z" fill="#FFA800"/>
<path d="M47.859 1.12066L47.8292 1.15041C47.9482 0.71405 48.1813 0.396694 48.5284 0.198347C48.8755 0 49.3367 -0.0495868 49.9119 0.0495868C50.4871 0.14876 50.8987 0.327273 51.1466 0.585124C51.3945 0.842975 51.4491 1.2 51.3102 1.6562L45.9548 22.9884V22.9587C45.8557 23.2959 45.6325 23.5537 45.2854 23.7322C44.9383 23.9107 44.5763 24 44.1995 24C43.7631 24 43.3515 23.9355 42.9648 23.8066C42.578 23.6777 42.335 23.4149 42.2358 23.0182L42.2656 23.0479L38.6061 8.52893H37.8028L34.173 23.0182C34.0739 23.3554 33.8259 23.6033 33.4292 23.762C33.0325 23.9207 32.6259 24 32.2094 24C31.6937 24 31.2821 23.9256 30.9747 23.7769C30.6672 23.6281 30.4639 23.3653 30.3648 22.9884L30.3945 23.0182L25.0391 1.6562C24.94 1.2595 25.0292 0.917355 25.3069 0.629752C25.5846 0.342149 25.9813 0.14876 26.497 0.0495868C27.6077 -0.128926 28.2821 0.238016 28.5201 1.15041L28.4904 1.12066L29.8292 6.50578C30.0077 7.21983 30.1863 7.94876 30.3648 8.69256C30.5433 9.43636 30.7416 10.2298 30.9598 11.0727C31.178 11.9157 31.416 12.8331 31.6739 13.8248C31.9317 14.8165 32.2193 15.9273 32.5367 17.157L36.3449 1.09091C36.4441 0.654545 36.6722 0.366942 37.0292 0.228099C37.3863 0.0892562 37.7829 0.0198347 38.2193 0.0198347C38.616 0.0198347 39.0028 0.0942149 39.3796 0.242975C39.7565 0.391736 39.9945 0.694215 40.0937 1.15041L44.021 17.0678L47.859 1.12066Z" fill="#00B2DA"/>
</svg>
