<svg width="51" height="24" viewBox="0 0 51 24" fill="none" xmlns="http://www.w3.org/2000/svg">
<path d="M10.5025 20.7861C11.2364 20.7861 11.7521 20.5779 12.0496 20.1613C12.3471 19.7448 12.4959 19.2787 12.4959 18.763V5.13653C12.4959 4.64066 12.3471 4.18446 12.0496 3.76794C11.7521 3.35141 11.2364 3.14314 10.5025 3.14314H3.5405L3.51074 22.5415C3.51074 22.9779 3.34215 23.325 3.00496 23.5828C2.66777 23.8407 2.25124 23.9696 1.75537 23.9696C0.585124 23.9696 0 23.4936 0 22.5415V1.92331C0 1.20926 0.183471 0.733225 0.550413 0.495208C0.917355 0.257192 1.35868 0.138184 1.87438 0.138184H11.2463C11.762 0.138184 12.2975 0.247274 12.8529 0.465456C13.4083 0.683638 13.9438 0.961324 14.4595 1.29851H14.4298C14.9455 1.67537 15.3421 2.16628 15.6198 2.77124C15.8975 3.3762 16.0364 4.07537 16.0364 4.86876V19.001C16.0364 20.6076 15.5008 21.8076 14.4298 22.601C13.914 22.9779 13.3835 23.2704 12.838 23.4787C12.2926 23.6869 11.762 23.7911 11.2463 23.7911H6.24793C5.91074 23.7911 5.64793 23.6522 5.4595 23.3745C5.27107 23.0969 5.17686 22.7299 5.17686 22.2737C5.17686 21.282 5.60331 20.7861 6.4562 20.7861H10.5025Z" fill="#00B2DA"/>
<path d="M24.7828 21.3225C24.7828 21.9969 24.5547 22.5672 24.0985 23.0333C23.6423 23.4994 23.077 23.7325 22.4026 23.7325C21.7282 23.7325 21.163 23.4994 20.7068 23.0333C20.2506 22.5672 20.0225 21.9969 20.0225 21.3225C20.0225 20.6482 20.2506 20.1077 20.7068 19.6416C21.163 19.1754 21.7282 18.9424 22.4026 18.9424C23.077 18.9424 23.6423 19.1754 24.0985 19.6416C24.5547 20.1077 24.7828 20.668 24.7828 21.3225Z" fill="#FFA800"/>
<path d="M47.3053 1.12066L47.2755 1.15041C47.3945 0.71405 47.6276 0.396694 47.9747 0.198347C48.3218 0 48.783 -0.0495868 49.3582 0.0495868C49.9334 0.14876 50.3449 0.327273 50.5929 0.585124C50.8408 0.842975 50.8954 1.2 50.7565 1.6562L45.4011 22.9884V22.9587C45.302 23.2959 45.0788 23.5537 44.7317 23.7322C44.3846 23.9107 44.0226 24 43.6458 24C43.2094 24 42.7978 23.9355 42.4111 23.8066C42.0243 23.6777 41.7813 23.4149 41.6821 23.0182L41.7119 23.0479L38.0524 8.52893H37.2491L33.6193 23.0182C33.5201 23.3554 33.2722 23.6033 32.8755 23.762C32.4788 23.9207 32.0722 24 31.6557 24C31.14 24 30.7284 23.9256 30.421 23.7769C30.1135 23.6281 29.9102 23.3653 29.8111 22.9884L29.8408 23.0182L24.4854 1.6562C24.3863 1.2595 24.4755 0.917355 24.7532 0.629752C25.0309 0.342149 25.4276 0.14876 25.9433 0.0495868C27.054 -0.128926 27.7284 0.238016 27.9664 1.15041L27.9367 1.12066L29.2755 6.50578C29.454 7.21983 29.6325 7.94876 29.8111 8.69256C29.9896 9.43636 30.1879 10.2298 30.4061 11.0727C30.6243 11.9157 30.8623 12.8331 31.1201 13.8248C31.378 14.8165 31.6656 15.9273 31.983 17.157L35.7912 1.09091C35.8904 0.654545 36.1185 0.366942 36.4755 0.228099C36.8325 0.0892562 37.2292 0.0198347 37.6656 0.0198347C38.0623 0.0198347 38.4491 0.0942149 38.8259 0.242975C39.2028 0.391736 39.4408 0.694215 39.54 1.15041L43.4673 17.0678L47.3053 1.12066Z" fill="#00B2DA"/>
</svg>
