<svg width="314" height="49" viewBox="0 0 314 49" fill="none" xmlns="http://www.w3.org/2000/svg">
<path d="M7.94 45.48C7.94 47.4 6.76 48.36 4.4 48.36C2.04 48.36 0.86 47.4 0.86 45.48V3.96C0.86 3.04 1.12 2.22 1.64 1.5C2.16 0.739998 3.16 0.359998 4.64 0.359998H25.04C26.48 0.359998 27.24 1.36 27.32 3.36C27.4 5.4 26.64 6.42 25.04 6.42H7.94V45.48ZM23.3 23.22C23.3 23.9 23.16 24.56 22.88 25.2C22.64 25.8 22.28 26.32 21.8 26.76C21.36 27.2 20.84 27.56 20.24 27.84C19.64 28.08 18.98 28.2 18.26 28.2C16.9 28.2 15.74 27.72 14.78 26.76C13.82 25.8 13.34 24.62 13.34 23.22C13.34 21.82 13.82 20.64 14.78 19.68C15.74 18.72 16.9 18.24 18.26 18.24C18.98 18.24 19.64 18.38 20.24 18.66C20.84 18.9 21.36 19.26 21.8 19.74C22.28 20.18 22.64 20.7 22.88 21.3C23.16 21.9 23.3 22.54 23.3 23.22ZM39.9069 38.4C39.9069 39.36 40.2069 40.26 40.8069 41.1C41.4469 41.94 42.5069 42.36 43.9869 42.36H51.4869C52.9669 42.36 54.0069 42 54.6069 41.28C55.2469 40.52 55.5669 39.66 55.5669 38.7V38.04C55.5669 36.16 56.6669 35.22 58.8669 35.22C61.0669 35.22 62.1669 36.16 62.1669 38.04V38.76C62.1669 40.44 61.8869 41.82 61.3269 42.9C60.8069 43.98 60.0069 44.92 58.9269 45.72C56.8069 47.24 54.6869 48 52.5669 48H42.4869C40.3669 48 38.3069 47.24 36.3069 45.72C35.3469 44.92 34.6069 43.92 34.0869 42.72C33.5669 41.48 33.3069 40.06 33.3069 38.46V21.36C33.3069 18.12 34.3069 15.72 36.3069 14.16C37.3069 13.44 38.3269 12.88 39.3669 12.48C40.4469 12.04 41.4869 11.82 42.4869 11.82H52.5669C53.5269 11.82 54.5869 12.02 55.7469 12.42C56.9069 12.78 57.9869 13.28 58.9869 13.92C59.9469 14.6 60.7069 15.54 61.2669 16.74C61.8669 17.94 62.1669 19.36 62.1669 21V29.1C62.1669 30.02 61.8869 30.84 61.3269 31.56C60.8069 32.28 59.8269 32.64 58.3869 32.64H45.4269C43.9869 32.64 43.2269 31.7 43.1469 29.82C43.1469 27.94 43.9069 27 45.4269 27H55.6269L55.5669 21.42C55.5669 20.42 55.2469 19.52 54.6069 18.72C54.0069 17.88 52.9669 17.46 51.4869 17.46H43.9869C42.5069 17.46 41.4469 17.88 40.8069 18.72C40.2069 19.52 39.9069 20.42 39.9069 21.42V38.4ZM76.4108 38.4C76.4108 39.36 76.7108 40.26 77.3108 41.1C77.9508 41.94 79.0108 42.36 80.4908 42.36H87.9908C89.4708 42.36 90.5108 42 91.1108 41.28C91.7508 40.52 92.0708 39.66 92.0708 38.7V38.04C92.0708 36.16 93.1708 35.22 95.3708 35.22C97.5708 35.22 98.6708 36.16 98.6708 38.04V38.76C98.6708 40.44 98.3908 41.82 97.8308 42.9C97.3108 43.98 96.5108 44.92 95.4308 45.72C93.3108 47.24 91.1908 48 89.0708 48H78.9908C76.8708 48 74.8108 47.24 72.8108 45.72C71.8508 44.92 71.1108 43.92 70.5908 42.72C70.0708 41.48 69.8108 40.06 69.8108 38.46V21.36C69.8108 18.12 70.8108 15.72 72.8108 14.16C73.8108 13.44 74.8308 12.88 75.8708 12.48C76.9508 12.04 77.9908 11.82 78.9908 11.82H89.0708C90.0308 11.82 91.0908 12.02 92.2508 12.42C93.4108 12.78 94.4908 13.28 95.4908 13.92C96.4508 14.6 97.2108 15.54 97.7708 16.74C98.3708 17.94 98.6708 19.36 98.6708 21V29.1C98.6708 30.02 98.3908 30.84 97.8308 31.56C97.3108 32.28 96.3308 32.64 94.8908 32.64H81.9308C80.4908 32.64 79.7308 31.7 79.6508 29.82C79.6508 27.94 80.4108 27 81.9308 27H92.1308L92.0708 21.42C92.0708 20.42 91.7508 19.52 91.1108 18.72C90.5108 17.88 89.4708 17.46 87.9908 17.46H80.4908C79.0108 17.46 77.9508 17.88 77.3108 18.72C76.7108 19.52 76.4108 20.42 76.4108 21.42V38.4ZM128.575 17.52H116.995C115.355 17.52 114.275 18 113.755 18.96C113.195 19.8 112.915 20.78 112.915 21.9V39.18C112.915 40.22 113.235 41.02 113.875 41.58C114.515 42.1 115.575 42.36 117.055 42.36H123.235C124.675 42.36 125.395 43.3 125.395 45.18C125.395 45.98 125.215 46.66 124.855 47.22C124.535 47.74 123.995 48 123.235 48H115.975C113.455 48 111.215 47.36 109.255 46.08C107.295 44.88 106.315 42.6 106.315 39.24V21.36C106.315 19.72 106.575 18.3 107.095 17.1C107.615 15.9 108.435 14.92 109.555 14.16C111.675 12.64 113.795 11.88 115.915 11.88H128.575V2.88C128.575 0.959999 129.675 -7.15256e-07 131.875 -7.15256e-07C134.075 -7.15256e-07 135.175 0.959999 135.175 2.88V45.48C135.175 47.4 134.075 48.36 131.875 48.36C131.035 48.36 130.275 48.22 129.595 47.94C128.915 47.62 128.575 46.94 128.575 45.9V17.52ZM149.652 45.48C149.652 46.44 149.312 47.16 148.632 47.64C147.952 48.12 147.212 48.36 146.412 48.36C144.212 48.36 143.112 47.4 143.112 45.48V2.88C143.112 0.959999 144.212 -7.15256e-07 146.412 -7.15256e-07C148.612 -7.15256e-07 149.712 0.959999 149.712 2.88V11.88H162.372C164.412 11.88 166.532 12.64 168.732 14.16C170.892 15.68 171.972 18.08 171.972 21.36V39.24C171.972 42.56 170.992 44.84 169.032 46.08C167.072 47.36 164.832 48 162.312 48H155.232C153.792 48 153.032 47.06 152.952 45.18C152.952 43.3 153.712 42.36 155.232 42.36H161.232C162.712 42.36 163.772 42.1 164.412 41.58C165.052 41.02 165.372 40.22 165.372 39.18V21.9C165.372 20.86 165.052 19.86 164.412 18.9L164.472 18.96C163.952 18 162.892 17.52 161.292 17.52H149.712L149.652 45.48ZM188.383 48C187.143 48 185.963 47.84 184.843 47.52C183.723 47.16 182.643 46.66 181.603 46.02V46.08C179.643 44.84 178.663 42.56 178.663 39.24V36.3C178.663 34.66 178.943 33.24 179.503 32.04C180.103 30.8 180.923 29.82 181.963 29.1H181.903C182.903 28.42 183.963 27.92 185.083 27.6C186.203 27.24 187.283 27.06 188.323 27.06H201.583V21.48C201.583 20.48 201.263 19.58 200.623 18.78C200.023 17.94 198.983 17.52 197.503 17.52H190.482C188.963 17.52 187.903 17.9 187.303 18.66C186.743 19.38 186.463 20.24 186.463 21.24V21.72C186.463 23.8 185.343 24.84 183.103 24.84C180.863 24.84 179.743 23.8 179.743 21.72V21.18C179.743 19.54 180.023 18.16 180.583 17.04C181.183 15.92 181.983 14.98 182.982 14.22H182.923C183.963 13.54 185.043 12.98 186.163 12.54C187.323 12.1 188.423 11.88 189.463 11.88H198.583C199.583 11.88 200.643 12.1 201.763 12.54C202.923 12.98 204.003 13.54 205.003 14.22H204.943C205.983 14.98 206.783 15.98 207.343 17.22C207.903 18.42 208.183 19.82 208.183 21.42V45.48C208.183 47.4 207.083 48.36 204.883 48.36C204.443 48.36 204.023 48.34 203.623 48.3C203.263 48.26 202.923 48.16 202.603 48C202.323 47.8 202.083 47.54 201.883 47.22C201.723 46.86 201.643 46.4 201.643 45.84L201.583 32.7H189.463C188.583 32.7 187.903 32.8 187.423 33C186.943 33.2 186.563 33.52 186.283 33.96C185.963 34.64 185.723 35.18 185.563 35.58C185.443 35.94 185.383 36.36 185.383 36.84V39.18C185.383 40.22 185.683 41.02 186.283 41.58C186.923 42.1 188.003 42.36 189.523 42.36H196.243C197.723 42.36 198.463 43.3 198.463 45.18C198.463 45.98 198.283 46.66 197.923 47.22C197.563 47.74 197.003 48 196.243 48H188.383ZM244.804 38.46C244.804 41.74 243.724 44.16 241.564 45.72C239.444 47.24 237.324 48 235.204 48H225.124C223.004 48 220.944 47.24 218.944 45.72C217.984 44.92 217.244 43.92 216.724 42.72C216.204 41.48 215.944 40.06 215.944 38.46V21.36C215.944 18.12 216.944 15.72 218.944 14.16C219.944 13.44 220.964 12.88 222.004 12.48C223.084 12.04 224.124 11.82 225.124 11.82H235.204C236.164 11.82 237.224 12.02 238.384 12.42C239.544 12.78 240.624 13.28 241.624 13.92C242.584 14.6 243.344 15.54 243.904 16.74C244.504 17.94 244.804 19.36 244.804 21V24C244.804 25.92 243.704 26.88 241.504 26.88C239.304 26.88 238.204 25.92 238.204 24V21.42C238.204 20.42 237.884 19.52 237.244 18.72C236.644 17.88 235.604 17.46 234.124 17.46H226.624C225.144 17.46 224.084 17.88 223.444 18.72C222.844 19.52 222.544 20.42 222.544 21.42V38.4C222.544 39.36 222.844 40.26 223.444 41.1C224.084 41.94 225.144 42.36 226.624 42.36H234.124C235.604 42.36 236.644 41.94 237.244 41.1C237.884 40.26 238.204 39.36 238.204 38.4V35.64C238.204 33.76 239.304 32.82 241.504 32.82C243.704 32.82 244.804 33.76 244.804 35.64V38.46ZM258.93 37.98V45.6C258.93 47.48 257.83 48.42 255.63 48.42C253.43 48.42 252.33 47.48 252.33 45.6V2.88C252.33 0.959999 253.43 -7.15256e-07 255.63 -7.15256e-07C257.83 -7.15256e-07 258.93 0.959999 258.93 2.88V28.32C259.93 27.12 261.03 25.84 262.23 24.48C263.47 23.08 264.69 21.68 265.89 20.28C267.13 18.84 268.35 17.44 269.55 16.08C270.75 14.68 271.87 13.38 272.91 12.18V12.24C273.63 11.4 274.35 10.98 275.07 10.98C275.47 10.98 275.85 11.08 276.21 11.28C276.61 11.44 277.03 11.68 277.47 12H277.41C278.37 12.8 278.85 13.6 278.85 14.4C278.85 14.68 278.79 15 278.67 15.36C278.55 15.68 278.35 15.96 278.07 16.2L258.93 37.98ZM278.97 43.98C279.25 44.5 279.39 45.04 279.39 45.6C279.39 46.64 278.79 47.42 277.59 47.94C276.79 48.42 276.07 48.66 275.43 48.66C274.99 48.66 274.57 48.5 274.17 48.18C273.77 47.9 273.45 47.54 273.21 47.1L267.21 35.52C266.85 34.92 266.67 34.32 266.67 33.72C266.67 32.72 267.19 31.88 268.23 31.2C268.51 31 268.79 30.82 269.07 30.66C269.39 30.5 269.73 30.38 270.09 30.3C270.53 30.22 270.95 30.3 271.35 30.54C271.75 30.78 272.09 31.1 272.37 31.5L278.97 43.98ZM303.823 27C304.823 27 305.883 27.24 307.003 27.72C308.163 28.16 309.243 28.72 310.243 29.4H310.183C311.223 30.16 312.023 31.14 312.583 32.34C313.143 33.54 313.423 34.98 313.423 36.66V38.46C313.423 41.74 312.343 44.16 310.183 45.72C309.143 46.52 308.083 47.1 307.003 47.46C305.923 47.82 304.863 48 303.823 48H293.623C292.583 48 291.523 47.82 290.443 47.46C289.363 47.1 288.303 46.52 287.263 45.72C285.103 44.2 284.022 41.78 284.022 38.46V37.74C284.022 36.02 285.123 35.18 287.323 35.22C289.563 35.22 290.683 36.06 290.683 37.74V38.4C290.683 39.36 290.983 40.26 291.583 41.1C292.183 41.94 293.243 42.36 294.763 42.36H302.683C304.203 42.36 305.263 41.94 305.863 41.1C306.463 40.26 306.763 39.36 306.763 38.4V36.72C306.763 36.2 306.683 35.7 306.523 35.22C306.403 34.74 306.183 34.32 305.863 33.96C305.543 33.56 305.123 33.24 304.603 33C304.083 32.76 303.443 32.64 302.683 32.64H293.923C291.883 32.64 289.743 31.92 287.503 30.48C285.383 29.12 284.323 26.78 284.323 23.46V21.42C284.323 19.82 284.603 18.42 285.163 17.22C285.723 15.98 286.523 14.98 287.562 14.22H287.503C288.503 13.54 289.563 12.98 290.683 12.54C291.803 12.1 292.883 11.88 293.923 11.88H303.523C304.563 11.88 305.623 12.1 306.703 12.54C307.823 12.98 308.903 13.54 309.943 14.22H309.883C310.923 14.98 311.723 15.98 312.283 17.22C312.842 18.42 313.122 19.82 313.122 21.42V21.96C313.122 22.8 312.842 23.42 312.283 23.82C311.723 24.18 310.903 24.38 309.823 24.42C307.623 24.46 306.523 23.64 306.523 21.96V21.48C306.523 20.48 306.203 19.58 305.563 18.78C304.963 17.94 303.923 17.52 302.443 17.52H295.003C293.523 17.52 292.463 17.94 291.823 18.78C291.223 19.58 290.923 20.48 290.923 21.48V22.92C290.923 23.96 291.223 24.9 291.823 25.74C292.463 26.58 293.523 27 295.003 27H303.823Z" fill="#E9E9E9"/>
<path d="M-4 61.2H316.962V63.6H-4V61.2Z" fill="#E9E9E9"/>
</svg>
