<svg width="211" height="49" viewBox="0 0 211 49" fill="none" xmlns="http://www.w3.org/2000/svg">
<path d="M37.58 0.0599985C38.86 0.0599985 40.26 0.359998 41.78 0.959998C43.18 1.52 43.88 2.58 43.88 4.14V45.48C43.88 47.4 42.7 48.36 40.34 48.36C37.98 48.36 36.8 47.4 36.8 45.48V14.64L35.06 14.46L32.66 22.26L25.46 46.26C25.02 47.66 23.94 48.34 22.22 48.3C21.46 48.26 20.8 48.06 20.24 47.7C19.68 47.34 19.3 46.82 19.1 46.14L14.78 32.16C13.9 29.4 13.02 26.6 12.14 23.76C11.26 20.88 10.3 17.7 9.26 14.22L7.52 14.46V45.48C7.52 47.4 6.34 48.36 3.98 48.36C1.62 48.36 0.44 47.4 0.44 45.48V4.14C0.44 2.62 1.14 1.56 2.54 0.959998C4.02 0.359998 5.44 0.0799983 6.8 0.119998C7.4 0.119998 8.02 0.199998 8.66 0.359998C9.3 0.519999 9.9 0.759998 10.46 1.08C11.02 1.36 11.52 1.74 11.96 2.22C12.4 2.66 12.74 3.18 12.98 3.78L22.4 35.88C23.08 33.52 23.8 30.96 24.56 28.2C25.32 25.44 26.1 22.64 26.9 19.8C27.7 16.96 28.48 14.16 29.24 11.4C30.04 8.6 30.78 6 31.46 3.6C31.7 3.04 32.04 2.54 32.48 2.1C32.92 1.66 33.42 1.3 33.98 1.02C34.54 0.699999 35.12 0.459999 35.72 0.299999C36.36 0.139999 36.98 0.0599985 37.58 0.0599985ZM58.4225 38.4C58.4225 39.36 58.7225 40.26 59.3225 41.1C59.9625 41.94 61.0225 42.36 62.5025 42.36H70.0025C71.4825 42.36 72.5225 42 73.1225 41.28C73.7625 40.52 74.0825 39.66 74.0825 38.7V38.04C74.0825 36.16 75.1825 35.22 77.3825 35.22C79.5825 35.22 80.6825 36.16 80.6825 38.04V38.76C80.6825 40.44 80.4025 41.82 79.8425 42.9C79.3225 43.98 78.5225 44.92 77.4425 45.72C75.3225 47.24 73.2025 48 71.0825 48H61.0025C58.8825 48 56.8225 47.24 54.8225 45.72C53.8625 44.92 53.1225 43.92 52.6025 42.72C52.0825 41.48 51.8225 40.06 51.8225 38.46V21.36C51.8225 18.12 52.8225 15.72 54.8225 14.16C55.8225 13.44 56.8425 12.88 57.8825 12.48C58.9625 12.04 60.0025 11.82 61.0025 11.82H71.0825C72.0425 11.82 73.1025 12.02 74.2625 12.42C75.4225 12.78 76.5025 13.28 77.5025 13.92C78.4625 14.6 79.2225 15.54 79.7825 16.74C80.3825 17.94 80.6825 19.36 80.6825 21V29.1C80.6825 30.02 80.4025 30.84 79.8425 31.56C79.3225 32.28 78.3425 32.64 76.9025 32.64H63.9425C62.5025 32.64 61.7425 31.7 61.6625 29.82C61.6625 27.94 62.4225 27 63.9425 27H74.1425L74.0825 21.42C74.0825 20.42 73.7625 19.52 73.1225 18.72C72.5225 17.88 71.4825 17.46 70.0025 17.46H62.5025C61.0225 17.46 59.9625 17.88 59.3225 18.72C58.7225 19.52 58.4225 20.42 58.4225 21.42V38.4ZM96.1864 17.52V39.36C96.1864 40.4 96.4064 41.2 96.8464 41.76C97.2864 42.32 98.2264 42.6 99.6664 42.6H101.226C102.786 42.6 103.526 43.52 103.446 45.36C103.446 47.24 102.706 48.18 101.226 48.18H99.2464C97.9664 48.18 96.7664 48.02 95.6464 47.7C94.5264 47.34 93.4464 46.84 92.4064 46.2V46.26C90.4464 44.98 89.4664 42.7 89.4664 39.42V17.52H87.1264C85.6864 17.52 84.9264 16.58 84.8464 14.7C84.8464 12.82 85.6064 11.88 87.1264 11.88H89.4664V5.46C89.4664 3.54 90.6064 2.58 92.8864 2.58C95.0864 2.58 96.1864 3.54 96.1864 5.46V11.88H101.166C102.726 11.88 103.466 12.82 103.386 14.7C103.386 16.58 102.646 17.52 101.166 17.52H96.1864ZM115.258 45.48C115.258 47.4 114.158 48.36 111.958 48.36C109.758 48.36 108.658 47.4 108.658 45.48V2.88C108.658 0.959999 109.758 -7.15256e-07 111.958 -7.15256e-07C114.158 -7.15256e-07 115.258 0.959999 115.258 2.88V11.88H127.918C129.958 11.88 132.078 12.64 134.278 14.16C136.438 15.68 137.518 18.08 137.518 21.36V45.48C137.518 47.4 136.418 48.36 134.218 48.36C132.018 48.36 130.918 47.4 130.918 45.48V21.9C130.918 20.86 130.598 19.86 129.958 18.9L130.018 18.96C129.498 18 128.438 17.52 126.838 17.52H115.258V45.48ZM164.655 11.88C165.695 11.88 166.755 12.1 167.835 12.54C168.955 12.98 170.035 13.54 171.075 14.22H171.015C172.055 14.98 172.855 15.98 173.415 17.22C173.975 18.42 174.255 19.82 174.255 21.42V38.46C174.255 41.74 173.175 44.16 171.015 45.72C168.895 47.24 166.775 48 164.655 48H155.055C154.015 48 152.955 47.82 151.875 47.46C150.795 47.1 149.735 46.52 148.695 45.72C146.535 44.2 145.455 41.78 145.455 38.46V21.42C145.455 19.82 145.735 18.42 146.295 17.22C146.855 15.98 147.655 14.98 148.695 14.22H148.635C149.635 13.54 150.695 12.98 151.815 12.54C152.935 12.1 154.015 11.88 155.055 11.88H164.655ZM163.575 42.36C165.055 42.36 166.095 41.94 166.695 41.1C167.335 40.26 167.655 39.36 167.655 38.4V21.48C167.655 20.48 167.335 19.58 166.695 18.78C166.095 17.94 165.055 17.52 163.575 17.52H156.135C154.655 17.52 153.595 17.94 152.955 18.78C152.355 19.58 152.055 20.48 152.055 21.48V38.4C152.055 39.36 152.355 40.26 152.955 41.1C153.595 41.94 154.655 42.36 156.135 42.36H163.575ZM204.102 17.52H192.522C190.882 17.52 189.802 18 189.282 18.96C188.722 19.8 188.442 20.78 188.442 21.9V39.18C188.442 40.22 188.762 41.02 189.402 41.58C190.042 42.1 191.102 42.36 192.582 42.36H198.762C200.202 42.36 200.922 43.3 200.922 45.18C200.922 45.98 200.742 46.66 200.382 47.22C200.062 47.74 199.522 48 198.762 48H191.502C188.982 48 186.742 47.36 184.782 46.08C182.822 44.88 181.842 42.6 181.842 39.24V21.36C181.842 19.72 182.102 18.3 182.622 17.1C183.142 15.9 183.962 14.92 185.082 14.16C187.202 12.64 189.322 11.88 191.442 11.88H204.102V2.88C204.102 0.959999 205.202 -7.15256e-07 207.402 -7.15256e-07C209.602 -7.15256e-07 210.702 0.959999 210.702 2.88V45.48C210.702 47.4 209.602 48.36 207.402 48.36C206.562 48.36 205.802 48.22 205.122 47.94C204.442 47.62 204.102 46.94 204.102 45.9V17.52Z" fill="#E9E9E9"/>
</svg>
