<svg width="24" height="24" viewBox="0 0 24 24" fill="none" xmlns="http://www.w3.org/2000/svg">
<g clip-path="url(#clip0_2050_13385)">
<path d="M20.4068 16.3466C19.3356 15.1859 18.0356 14.2596 16.5888 13.6261C15.142 12.9926 13.5796 12.6655 12.0002 12.6655C10.4207 12.6655 8.85837 12.9926 7.41153 13.6261C5.9647 14.2596 4.66473 15.1859 3.5935 16.3466C3.42811 16.5294 3.33559 16.7667 3.3335 17.0132V21.0132C3.337 21.2761 3.4439 21.5271 3.63106 21.7117C3.81822 21.8964 4.07057 21.9999 4.3335 21.9999H19.6668C19.932 21.9999 20.1864 21.8945 20.3739 21.707C20.5615 21.5195 20.6668 21.2651 20.6668 20.9999V16.9999C20.6615 16.7579 20.5692 16.526 20.4068 16.3466Z" fill="#00B2DA"/>
<path d="M12.0002 11.3333C14.5775 11.3333 16.6668 9.244 16.6668 6.66667C16.6668 4.08934 14.5775 2 12.0002 2C9.42283 2 7.3335 4.08934 7.3335 6.66667C7.3335 9.244 9.42283 11.3333 12.0002 11.3333Z" fill="#00B2DA"/>
</g>
<defs>
<clipPath id="clip0_2050_13385">
<rect width="24" height="24" fill="white"/>
</clipPath>
</defs>
</svg>
